<svg id="Laag_1" data-name="Laag 1" xmlns="http://www.w3.org/2000/svg" viewBox="0 0 453.81 509.34"><defs><style>.cls-1{fill:#1d1d1b;stroke:#fff;stroke-miterlimit:10;stroke-width:16px;}</style></defs><polygon class="cls-1" points="445.22 390.79 422.61 475.4 29.39 475.4 8.58 397.49 228.83 16 445.22 390.79"/><polygon class="cls-1" points="336.53 475.4 310.58 501.34 147.09 501.34 121.15 475.4 147.09 449.46 310.58 449.46 336.53 475.4"/><path class="cls-1" d="M275.82,262.75,232.58,358a56.37,56.37,0,0,1-53.72-58.46l45.91-53.2A56.45,56.45,0,0,1,275.82,262.75Z" transform="translate(-68.86 -23.21)"/><path class="cls-1" d="M319.88,263.55l45,94.48a56.38,56.38,0,0,0,52.63-59.45l-46.88-52.34A56.46,56.46,0,0,0,319.88,263.55Z" transform="translate(-68.86 -23.21)"/></svg>